<?xml version="1.0" encoding="UTF-8" standalone="no"?>
<!-- Created with Inkscape (http://www.inkscape.org/) -->

<svg
   xmlns:dc="http://purl.org/dc/elements/1.1/"
   xmlns:cc="http://creativecommons.org/ns#"
   xmlns:rdf="http://www.w3.org/1999/02/22-rdf-syntax-ns#"
   xmlns:svg="http://www.w3.org/2000/svg"
   xmlns="http://www.w3.org/2000/svg"
   xmlns:sodipodi="http://sodipodi.sourceforge.net/DTD/sodipodi-0.dtd"
   xmlns:inkscape="http://www.inkscape.org/namespaces/inkscape"
   width="210mm"
   height="297mm"
   id="svg2"
   version="1.1"
   inkscape:version="0.48.4 r9939"
   sodipodi:docname="hexagon-case-recif-sec.svg">
  <defs
     id="defs4" />
  <sodipodi:namedview
     id="base"
     pagecolor="#ffffff"
     bordercolor="#666666"
     borderopacity="1.0"
     inkscape:pageopacity="0.0"
     inkscape:pageshadow="2"
     inkscape:zoom="8.08"
     inkscape:cx="20.98067"
     inkscape:cy="64.077536"
     inkscape:document-units="px"
     inkscape:current-layer="layer1"
     showgrid="false"
     inkscape:window-width="1555"
     inkscape:window-height="809"
     inkscape:window-x="194"
     inkscape:window-y="147"
     inkscape:window-maximized="0" />
  <metadata
     id="metadata7">
    <rdf:RDF>
      <cc:Work
         rdf:about="">
        <dc:format>image/svg+xml</dc:format>
        <dc:type
           rdf:resource="http://purl.org/dc/dcmitype/StillImage" />
        <dc:title></dc:title>
      </cc:Work>
    </rdf:RDF>
  </metadata>
  <g
     inkscape:label="Calque 1"
     inkscape:groupmode="layer"
     id="layer1">
    <path
       style="fill:none;stroke:#000000;stroke-width:1px;stroke-linecap:butt;stroke-linejoin:miter;stroke-opacity:1"
       d="m 89.727723,948.52555 -59.282178,0 -29.95049553,51.36139 -0.0377324,1.05346 29.87804893,51.2693 59.29878,0 30.167834,-51.3326 0.12376,-1.11393 z"
       id="path2987"
       inkscape:connector-curvature="0"
       sodipodi:nodetypes="cccccccc" />
    <path
       style="fill:#ffbb31;fill-opacity:0"
       d="m 30.03827,1050.5557 c -0.134622,-0.2212 -6.710947,-11.5 -14.614054,-25.0639 -10.6246232,-18.2348 -14.3692886,-24.7609 -14.3692886,-25.0427 0,-0.2819 3.8652714,-7.00932 14.8605756,-25.86456 l 14.860577,-25.48357 29.329698,0.0312 29.329699,0.0312 14.967723,25.39494 c 14.17152,24.04407 14.96281,25.41746 14.87532,25.8185 -0.0508,0.233 -6.71988,11.7072 -14.82013,25.4983 l -14.72772,25.0746 -29.723817,0 -29.723817,0 -0.244766,-0.4022 0,0 z"
       id="path4752"
       inkscape:connector-curvature="0" />
    <path
       style="fill:#ffbb31;fill-opacity:0"
       d="M 15.607629,1025.8125 C 1.8317262,1002.1619 0.97075249,1000.6498 1.0655501,1000.2712 1.12097,1000.0499 7.8216354,988.44826 15.955918,974.48981 l 14.789603,-25.379 29.331684,-0.003 29.331683,-0.003 14.956022,25.38313 c 13.67992,23.21738 14.95168,25.42159 14.9052,25.83376 -0.0363,0.3216 -4.26829,7.622 -14.7895,25.5125 l -14.738694,25.0618 -29.745722,0.028 -29.745722,0.028 -14.642843,-25.139 z"
       id="path5262"
       inkscape:connector-curvature="0" />
    <path
       style="fill:#f4a800;fill-opacity:1"
       d="m 30.03827,1050.5557 c -0.134622,-0.2212 -6.710947,-11.5 -14.614054,-25.0639 -10.6246232,-18.2348 -14.3692886,-24.7609 -14.3692886,-25.0427 0,-0.2819 3.8652714,-7.00932 14.8605756,-25.86456 l 14.860577,-25.48357 29.329698,0.0312 29.329699,0.0312 14.967723,25.39494 c 14.17152,24.04407 14.96281,25.41746 14.87532,25.8185 -0.0508,0.233 -6.71988,11.7072 -14.82013,25.4983 l -14.72772,25.0746 -29.723817,0 -29.723817,0 -0.244766,-0.4022 0,0 z"
       id="path5264"
       inkscape:connector-curvature="0" />
    <path
       sodipodi:type="arc"
       style="fill:#ffbe31;fill-opacity:1"
       id="path5266"
       sodipodi:cx="33.972771"
       sodipodi:cy="977.98102"
       sodipodi:rx="6.4975247"
       sodipodi:ry="8.0445547"
       d="m 40.470295,977.98102 a 6.4975247,8.0445547 0 1 1 -12.995049,0 6.4975247,8.0445547 0 1 1 12.995049,0 z"
       transform="matrix(1.8774152,-0.64275186,0.45804967,1.1634709,-467.74735,-145.33732)" />
    <path
       sodipodi:type="arc"
       style="fill:#ffbe31;fill-opacity:1"
       id="path5266-5"
       sodipodi:cx="33.972771"
       sodipodi:cy="977.98102"
       sodipodi:rx="6.4975247"
       sodipodi:ry="8.0445547"
       d="m 40.470295,977.98102 a 6.4975247,8.0445547 0 1 1 -12.995049,0 6.4975247,8.0445547 0 1 1 12.995049,0 z"
       transform="matrix(2.1904762,0,0,2.4615385,12.83593,-1404.4806)" />
    <path
       sodipodi:type="arc"
       style="fill:#ffbe31;fill-opacity:1"
       id="path5266-5-4"
       sodipodi:cx="33.972771"
       sodipodi:cy="977.98102"
       sodipodi:rx="6.4975247"
       sodipodi:ry="8.0445547"
       d="m 40.470295,977.98102 a 6.4975247,8.0445547 0 1 1 -12.995049,0 6.4975247,8.0445547 0 1 1 12.995049,0 z"
       transform="matrix(1.9792933,-0.74337196,0.8816917,2.3475818,-888.24507,-1249.8333)" />
  </g>
</svg>
