<?xml version="1.0" encoding="UTF-8" standalone="no"?>
<!-- Created with Inkscape (http://www.inkscape.org/) -->

<svg
   xmlns:dc="http://purl.org/dc/elements/1.1/"
   xmlns:cc="http://creativecommons.org/ns#"
   xmlns:rdf="http://www.w3.org/1999/02/22-rdf-syntax-ns#"
   xmlns:svg="http://www.w3.org/2000/svg"
   xmlns="http://www.w3.org/2000/svg"
   xmlns:xlink="http://www.w3.org/1999/xlink"
   xmlns:sodipodi="http://sodipodi.sourceforge.net/DTD/sodipodi-0.dtd"
   xmlns:inkscape="http://www.inkscape.org/namespaces/inkscape"
   width="210mm"
   height="297mm"
   id="svg2"
   version="1.1"
   inkscape:version="0.48.4 r9939"
   sodipodi:docname="unit-barge-pleine.svg">
  <defs
     id="defs4">
    <linearGradient
       inkscape:collect="always"
       id="linearGradient3952">
      <stop
         style="stop-color:#000000;stop-opacity:1;"
         offset="0"
         id="stop3954" />
      <stop
         style="stop-color:#000000;stop-opacity:0;"
         offset="1"
         id="stop3956" />
    </linearGradient>
    <linearGradient
       id="linearGradient6655">
      <stop
         style="stop-color:#b3b3b3;stop-opacity:1;"
         offset="0"
         id="stop6657" />
      <stop
         style="stop-color:#b3b3b3;stop-opacity:0;"
         offset="1"
         id="stop6659" />
    </linearGradient>
    <linearGradient
       inkscape:collect="always"
       xlink:href="#linearGradient3952"
       id="linearGradient3958"
       x1="35.315339"
       y1="956.43957"
       x2="84.753541"
       y2="956.43957"
       gradientUnits="userSpaceOnUse" />
  </defs>
  <sodipodi:namedview
     id="base"
     pagecolor="#ffffff"
     bordercolor="#666666"
     borderopacity="1.0"
     inkscape:pageopacity="0.0"
     inkscape:pageshadow="2"
     inkscape:zoom="2.67"
     inkscape:cx="-27.006759"
     inkscape:cy="127.68291"
     inkscape:document-units="px"
     inkscape:current-layer="layer1"
     showgrid="false"
     inkscape:window-width="1855"
     inkscape:window-height="1056"
     inkscape:window-x="65"
     inkscape:window-y="24"
     inkscape:window-maximized="1" />
  <metadata
     id="metadata7">
    <rdf:RDF>
      <cc:Work
         rdf:about="">
        <dc:format>image/svg+xml</dc:format>
        <dc:type
           rdf:resource="http://purl.org/dc/dcmitype/StillImage" />
        <dc:title></dc:title>
      </cc:Work>
    </rdf:RDF>
  </metadata>
  <g
     inkscape:label="Calque 1"
     inkscape:groupmode="layer"
     id="layer1">
    <path
       style="fill:#b3b3b3;stroke:#000000;stroke-width:0.99999988px;stroke-linecap:butt;stroke-linejoin:miter;stroke-opacity:1"
       d="m 34.481871,1045.8966 51.036258,0"
       id="path3398"
       inkscape:connector-curvature="0" />
    <path
       style="fill:#b3b3b3;stroke:#000000;stroke-width:0.99999994px;stroke-linecap:butt;stroke-linejoin:miter;stroke-opacity:1"
       d="m 30.017033,1049.8966 4.482967,0 0,-2.716 0,-180.28401 51,0 0,180.37161 0,2.5408 4.026019,0 0,-186.38471 -4.169855,-15.5621 -50.875957,0 -4.39814,16.4141 z"
       id="path3398-9"
       inkscape:connector-curvature="0" />
    <path
       style="fill:#000000;fill-opacity:0;stroke:none"
       d="m 35.467747,956.32274 0,88.61386 24.752475,0 24.752476,0 0,-88.61386 0,-88.61385 -24.752476,0 -24.752475,0 0,88.61385 z"
       id="path3461"
       inkscape:connector-curvature="0" />
    <path
       style="fill:#000000;fill-opacity:0;stroke:none"
       d="m 35.315339,956.43958 0,-88.76405 24.719101,0 24.719101,0 0,88.76405 0,88.76402 -24.719101,0 -24.719101,0 0,-88.76402 z"
       id="path3892"
       inkscape:connector-curvature="0" />
    <path
       style="fill:none;fill-opacity:0;stroke:none"
       d="m 35.315339,956.43958 0,-88.76405 24.719101,0 24.719101,0 0,88.76405 0,88.76402 -24.719101,0 -24.719101,0 0,-88.76402 z"
       id="path3894"
       inkscape:connector-curvature="0" />
    <path
       style="fill:#ff0000;stroke:none;fill-opacity:1"
       d="m 35.315339,956.43958 0,-88.76405 24.719101,0 24.719101,0 0,88.76405 0,88.76402 -24.719101,0 -24.719101,0 0,-88.76402 z"
       id="path3896"
       inkscape:connector-curvature="0" />
    <path
       style="fill:#1a1a1a;fill-opacity:1;stroke:none"
       d="m 35.315339,956.43958 0,-88.76405 24.719101,0 24.719101,0 0,88.76405 0,88.76402 -24.719101,0 -24.719101,0 0,-88.76402 z"
       id="path3910"
       inkscape:connector-curvature="0" />
    <path
       style="fill:#4d4d4d;fill-opacity:1;stroke:none"
       d="m 35.315339,956.43958 0,-88.76405 24.719101,0 24.719101,0 0,88.76405 0,88.76402 -24.719101,0 -24.719101,0 0,-88.76402 z"
       id="path3940"
       inkscape:connector-curvature="0" />
    <path
       style="fill:url(#linearGradient3958);fill-opacity:1;stroke:none"
       d="m 35.315339,956.43958 0,-88.76405 24.719101,0 24.719101,0 0,88.76405 0,88.76402 -24.719101,0 -24.719101,0 0,-88.76402 z"
       id="path3942"
       inkscape:connector-curvature="0"
       inkscape:export-filename="/home/cyrille/Documents/workspace-web/full-metal-planet/img/unit-barge-pleine.png"
       inkscape:export-xdpi="90"
       inkscape:export-ydpi="90" />
  </g>
</svg>
