<?xml version="1.0" encoding="UTF-8" standalone="no"?>
<!-- Created with Inkscape (http://www.inkscape.org/) -->

<svg
   xmlns:dc="http://purl.org/dc/elements/1.1/"
   xmlns:cc="http://creativecommons.org/ns#"
   xmlns:rdf="http://www.w3.org/1999/02/22-rdf-syntax-ns#"
   xmlns:svg="http://www.w3.org/2000/svg"
   xmlns="http://www.w3.org/2000/svg"
   xmlns:sodipodi="http://sodipodi.sourceforge.net/DTD/sodipodi-0.dtd"
   xmlns:inkscape="http://www.inkscape.org/namespaces/inkscape"
   width="120"
   height="104"
   id="svg2"
   version="1.1"
   inkscape:version="0.48.4 r9939"
   sodipodi:docname="unit-aeronef-turret.svg">
  <defs
     id="defs4">
    <linearGradient
       id="linearGradient6655">
      <stop
         id="stop6657"
         offset="0"
         style="stop-color:#b3b3b3;stop-opacity:1;" />
      <stop
         id="stop6659"
         offset="1"
         style="stop-color:#b3b3b3;stop-opacity:0;" />
    </linearGradient>
  </defs>
  <sodipodi:namedview
     id="base"
     pagecolor="#ffffff"
     bordercolor="#666666"
     borderopacity="1.0"
     inkscape:pageopacity="0.0"
     inkscape:pageshadow="2"
     inkscape:zoom="6.1234948"
     inkscape:cx="59.609949"
     inkscape:cy="49.688847"
     inkscape:document-units="px"
     inkscape:current-layer="layer1"
     showgrid="false"
     inkscape:window-width="927"
     inkscape:window-height="918"
     inkscape:window-x="754"
     inkscape:window-y="90"
     inkscape:window-maximized="0" />
  <metadata
     id="metadata7">
    <rdf:RDF>
      <cc:Work
         rdf:about="">
        <dc:format>image/svg+xml</dc:format>
        <dc:type
           rdf:resource="http://purl.org/dc/dcmitype/StillImage" />
        <dc:title />
      </cc:Work>
    </rdf:RDF>
  </metadata>
  <g
     inkscape:label="Calque 1"
     inkscape:groupmode="layer"
     id="layer1"
     transform="translate(0,-948.36218)">
    <path
       style="fill:#999999;fill-opacity:1;stroke:#000000;stroke-width:1px;stroke-linecap:butt;stroke-linejoin:miter;stroke-opacity:1"
       d="m 89.727723,948.52555 -59.282178,0 -29.95049553,51.36139 -0.0377324,1.05346 29.87804893,51.2693 59.29878,0 30.167834,-51.3326 0.12376,-1.11393 z"
       id="path2987"
       inkscape:connector-curvature="0"
       sodipodi:nodetypes="cccccccc" />
    <path
       style="fill:#999999;fill-opacity:1;stroke:#000000;stroke-width:1px;stroke-linecap:butt;stroke-linejoin:miter;stroke-opacity:1"
       d="m 86.47867,953.97805 -52.632964,0 -26.5911861,45.59327 -0.0335,0.93518 26.5268651,45.5116 52.647705,0 26.78415,-45.5679 0.10991,-0.98868 z"
       id="path2987-2"
       inkscape:connector-curvature="0"
       sodipodi:nodetypes="cccccccc" />
    <path
       sodipodi:type="arc"
       style="fill:#999999;fill-opacity:1;fill-rule:nonzero;stroke:#000000;stroke-width:1.1121788;stroke-opacity:1"
       id="path5713"
       sodipodi:cx="59.198223"
       sodipodi:cy="998.30811"
       sodipodi:rx="33.722572"
       sodipodi:ry="37.560249"
       d="m 92.920795,998.30811 c 0,20.74399 -15.098109,37.56029 -33.722572,37.56029 -18.624462,0 -33.722572,-16.8163 -33.722572,-37.56029 0,-20.74396 15.09811,-37.56025 33.722572,-37.56025 18.624463,0 33.722572,16.81629 33.722572,37.56025 z"
       transform="matrix(0.94891931,0,0,0.85196453,3.5875899,149.58924)" />
    <path
       sodipodi:type="arc"
       style="fill:#999999;fill-opacity:1;fill-rule:nonzero;stroke:#000000;stroke-width:1.20643127;stroke-opacity:1"
       id="path5713-0"
       sodipodi:cx="59.198223"
       sodipodi:cy="998.30811"
       sodipodi:rx="33.722572"
       sodipodi:ry="37.560249"
       d="m 92.920795,998.30811 c 0,20.74399 -15.098109,37.56029 -33.722572,37.56029 -18.624462,0 -33.722572,-16.8163 -33.722572,-37.56029 0,-20.74396 15.09811,-37.56025 33.722572,-37.56025 18.624463,0 33.722572,16.81629 33.722572,37.56025 z"
       transform="matrix(0.87478499,0,0,0.7854048,8.0969601,216.07889)" />
    <path
       sodipodi:type="arc"
       style="fill:#666666;fill-opacity:1;fill-rule:nonzero;stroke:#000000;stroke-width:1.06467295;stroke-linejoin:miter;stroke-miterlimit:4;stroke-opacity:1;stroke-dasharray:none"
       id="path5735"
       sodipodi:cx="129.17461"
       sodipodi:cy="958.86981"
       sodipodi:rx="12.084602"
       sodipodi:ry="11.349728"
       d="m 141.25921,958.86981 c 0,6.26828 -5.41046,11.34973 -12.0846,11.34973 -6.67415,0 -12.08461,-5.08145 -12.08461,-11.34973 0,-6.26828 5.41046,-11.34973 12.08461,-11.34973 6.67414,0 12.0846,5.08145 12.0846,11.34973 z"
       transform="matrix(0.91024923,0,0,0.96918625,-57.58945,86.889699)" />
    <rect
       style="fill:#666666;fill-opacity:1;fill-rule:nonzero;stroke:#000000;stroke-width:1;stroke-linejoin:miter;stroke-miterlimit:4;stroke-opacity:1;stroke-dasharray:none"
       id="rect5768"
       width="6.0423017"
       height="29.394979"
       x="56.830292"
       y="977.40503" />
  </g>
</svg>
